<svg width="282" height="206" viewBox="0 0 282 206" fill="none" xmlns="http://www.w3.org/2000/svg">
<path d="M89.4321 123.627C103.627 123.627 115.133 135.128 115.133 149.314C115.133 163.499 103.627 175 89.4321 175C75.2374 175 63.731 163.499 63.731 149.314C63.731 135.128 75.2373 123.627 89.4321 123.627Z" stroke="black" stroke-width="2"/>
<path d="M21.3216 68.0273L26.1511 38.9364H37.7988C39.939 38.9364 41.6719 39.2536 42.9977 39.8881C44.3329 40.5225 45.2657 41.4032 45.796 42.5301C46.3263 43.6475 46.4683 44.9354 46.2221 46.3938C46.0233 47.5301 45.6208 48.5244 45.0147 49.3767C44.4181 50.229 43.6795 50.9297 42.7988 51.479C41.9181 52.0282 40.9617 52.4165 39.9295 52.6438L39.8727 52.9279C40.9712 52.9752 41.9608 53.2877 42.8414 53.8654C43.7221 54.4335 44.3803 55.2385 44.8159 56.2801C45.2515 57.3218 45.3509 58.5576 45.1142 59.9875C44.8585 61.5311 44.2477 62.9089 43.2818 64.121C42.3159 65.3237 41.028 66.2754 39.4181 66.9761C37.8178 67.6769 35.9286 68.0273 33.7505 68.0273H21.3216ZM28.3244 62.9989H33.3386C35.0431 62.9989 36.3452 62.6674 37.2449 62.0046C38.1445 61.3417 38.6842 60.4657 38.8642 59.3767C38.9873 58.5718 38.9068 57.8616 38.6227 57.246C38.3481 56.6305 37.8793 56.1475 37.2164 55.7972C36.563 55.4468 35.7344 55.2716 34.7306 55.2716H29.5886L28.3244 62.9989ZM30.2988 51.1097H34.8585C35.6918 51.1097 36.4636 50.9629 37.1738 50.6693C37.8935 50.3663 38.4854 49.9402 38.9494 49.3909C39.4229 48.8322 39.7212 48.1741 39.8443 47.4165C40.0147 46.3559 39.778 45.5083 39.1341 44.8739C38.4996 44.2299 37.5053 43.908 36.1511 43.908H31.492L30.2988 51.1097ZM47.6532 68.0273L51.2896 46.2091H57.1561L56.5169 50.0159H56.7441C57.3691 48.6618 58.2072 47.639 59.2583 46.9477C60.319 46.247 61.46 45.8966 62.6816 45.8966C62.9847 45.8966 63.3019 45.9155 63.6333 45.9534C63.9743 45.9818 64.2773 46.0292 64.5424 46.0955L63.6333 51.479C63.3682 51.3843 62.9894 51.3085 62.497 51.2517C62.014 51.1854 61.5547 51.1523 61.1191 51.1523C60.2385 51.1523 59.4193 51.3464 58.6618 51.7347C57.9042 52.1135 57.265 52.6438 56.7441 53.3256C56.2328 54.0074 55.8966 54.7934 55.7356 55.6835L53.7044 68.0273H47.6532ZM68.9636 38.9364H76.5488L81.3358 58.4818H81.6767L92.9125 38.9364H100.498L95.6681 68.0273H89.7022L92.8556 49.0926H92.6L81.975 67.8852H77.8983L73.5233 49.0216H73.2818L70.1 68.0273H64.1341L68.9636 38.9364ZM110.508 68.4534C108.283 68.4534 106.441 67.9799 104.983 67.033C103.524 66.0765 102.497 64.7508 101.9 63.0557C101.313 61.3511 101.204 59.3672 101.574 57.104C101.934 54.8691 102.682 52.9136 103.818 51.2375C104.954 49.5614 106.398 48.2593 108.15 47.3313C109.902 46.3938 111.877 45.925 114.074 45.925C116.29 45.925 118.127 46.4032 119.585 47.3597C121.043 48.3066 122.071 49.6324 122.667 51.3369C123.264 53.0415 123.378 55.0254 123.008 57.2886C122.639 59.514 121.881 61.4648 120.736 63.1409C119.59 64.8171 118.146 66.1239 116.403 67.0614C114.661 67.9894 112.696 68.4534 110.508 68.4534ZM111.105 63.7659C112.128 63.7659 113.032 63.4771 113.818 62.8994C114.613 62.3123 115.272 61.5169 115.792 60.5131C116.323 59.4998 116.692 58.354 116.9 57.0756C117.109 55.8161 117.123 54.6987 116.943 53.7233C116.763 52.7385 116.384 51.9619 115.807 51.3938C115.238 50.8256 114.457 50.5415 113.463 50.5415C112.44 50.5415 111.531 50.835 110.736 51.4222C109.94 51.9998 109.282 52.7953 108.761 53.8085C108.24 54.8218 107.876 55.9724 107.667 57.2602C107.469 58.5102 107.454 59.6277 107.625 60.6125C107.795 61.5879 108.169 62.3597 108.747 62.9279C109.325 63.4866 110.111 63.7659 111.105 63.7659ZM133.165 68.3824C131.498 68.3824 130.063 67.9563 128.861 67.104C127.667 66.2422 126.815 64.978 126.304 63.3114C125.802 61.6352 125.755 59.5803 126.162 57.1466C126.578 54.6466 127.327 52.568 128.406 50.9108C129.486 49.2441 130.764 47.9989 132.241 47.175C133.719 46.3417 135.257 45.925 136.858 45.925C138.07 45.925 139.05 46.1333 139.798 46.55C140.556 46.9572 141.138 47.4686 141.545 48.0841C141.952 48.6902 142.237 49.2868 142.398 49.8739H142.582L144.415 38.9364H150.452L145.622 68.0273H139.656L140.238 64.533H139.983C139.604 65.139 139.102 65.7404 138.477 66.3369C137.862 66.9241 137.113 67.4118 136.233 67.8C135.362 68.1883 134.339 68.3824 133.165 68.3824ZM135.835 63.5671C136.801 63.5671 137.672 63.3019 138.449 62.7716C139.225 62.2318 139.879 61.479 140.409 60.5131C140.939 59.5472 141.309 58.4155 141.517 57.1182C141.735 55.8208 141.739 54.6939 141.531 53.7375C141.323 52.7811 140.916 52.0424 140.309 51.5216C139.713 51.0008 138.922 50.7404 137.937 50.7404C136.943 50.7404 136.062 51.0102 135.295 51.55C134.538 52.0898 133.908 52.8379 133.406 53.7943C132.914 54.7508 132.563 55.8587 132.355 57.1182C132.147 58.3871 132.132 59.5093 132.312 60.4847C132.492 61.4506 132.876 62.2082 133.463 62.7574C134.05 63.2972 134.841 63.5671 135.835 63.5671ZM160.469 68.4534C158.234 68.4534 156.383 67.9989 154.915 67.0898C153.448 66.1712 152.415 64.8739 151.819 63.1977C151.232 61.5121 151.132 59.5188 151.52 57.2176C151.899 54.9733 152.662 53.0036 153.807 51.3085C154.963 49.6135 156.412 48.2924 158.154 47.3455C159.896 46.3985 161.838 45.925 163.978 45.925C165.417 45.925 166.719 46.157 167.884 46.621C169.058 47.0756 170.034 47.7669 170.81 48.6949C171.587 49.6135 172.117 50.764 172.401 52.1466C172.695 53.5292 172.69 55.1485 172.387 57.0046L172.117 58.6665H153.708L154.29 54.9165H167.018C167.16 54.0453 167.103 53.2735 166.847 52.6011C166.591 51.9288 166.165 51.4032 165.569 51.0244C164.972 50.6362 164.238 50.4421 163.367 50.4421C162.477 50.4421 161.644 50.6599 160.867 51.0955C160.09 51.5311 159.437 52.104 158.907 52.8142C158.386 53.515 158.05 54.2773 157.898 55.1011L157.231 58.8227C157.041 59.9686 157.079 60.9203 157.344 61.6779C157.619 62.4354 158.092 63.0036 158.765 63.3824C159.437 63.7517 160.289 63.9364 161.322 63.9364C161.994 63.9364 162.624 63.8417 163.211 63.6523C163.807 63.4629 164.338 63.1835 164.802 62.8142C165.266 62.4354 165.644 61.9667 165.938 61.408L171.464 61.7773C170.952 63.122 170.176 64.2962 169.134 65.3C168.092 66.2943 166.838 67.0708 165.37 67.6296C163.912 68.1788 162.278 68.4534 160.469 68.4534ZM185.409 38.9364L180.579 68.0273H174.528L179.358 38.9364H185.409ZM195.313 68.4534C193.088 68.4534 191.246 67.9799 189.787 67.033C188.329 66.0765 187.302 64.7508 186.705 63.0557C186.118 61.3511 186.009 59.3672 186.378 57.104C186.738 54.8691 187.486 52.9136 188.623 51.2375C189.759 49.5614 191.203 48.2593 192.955 47.3313C194.707 46.3938 196.681 45.925 198.878 45.925C201.094 45.925 202.931 46.4032 204.39 47.3597C205.848 48.3066 206.876 49.6324 207.472 51.3369C208.069 53.0415 208.182 55.0254 207.813 57.2886C207.444 59.514 206.686 61.4648 205.54 63.1409C204.394 64.8171 202.95 66.1239 201.208 67.0614C199.465 67.9894 197.501 68.4534 195.313 68.4534ZM195.91 63.7659C196.932 63.7659 197.837 63.4771 198.623 62.8994C199.418 62.3123 200.076 61.5169 200.597 60.5131C201.127 59.4998 201.497 58.354 201.705 57.0756C201.913 55.8161 201.928 54.6987 201.748 53.7233C201.568 52.7385 201.189 51.9619 200.611 51.3938C200.043 50.8256 199.262 50.5415 198.268 50.5415C197.245 50.5415 196.336 50.835 195.54 51.4222C194.745 51.9998 194.087 52.7953 193.566 53.8085C193.045 54.8218 192.68 55.9724 192.472 57.2602C192.273 58.5102 192.259 59.6277 192.43 60.6125C192.6 61.5879 192.974 62.3597 193.552 62.9279C194.129 63.4866 194.915 63.7659 195.91 63.7659ZM219.329 68.0273L224.159 38.9364H235.636C237.833 38.9364 239.642 39.3246 241.062 40.1011C242.492 40.8777 243.496 41.9809 244.074 43.4108C244.661 44.8313 244.798 46.5074 244.486 48.4392C244.164 50.371 243.468 52.0282 242.398 53.4108C241.337 54.7934 239.954 55.8587 238.25 56.6068C236.555 57.3455 234.59 57.7148 232.355 57.7148H224.67L225.523 52.7716H232.199C233.373 52.7716 234.377 52.6106 235.21 52.2886C236.043 51.9667 236.702 51.4837 237.184 50.8398C237.677 50.1958 237.999 49.3957 238.15 48.4392C238.311 47.4638 238.255 46.6494 237.98 45.996C237.705 45.3332 237.208 44.8313 236.488 44.4904C235.769 44.14 234.822 43.9648 233.648 43.9648H229.5L225.48 68.0273H219.329ZM237.227 54.7886L242.27 68.0273H235.48L230.594 54.7886H237.227Z" fill="#040404"/>
<path d="M32 104L32 140" stroke="#040404" stroke-width="2" stroke-linecap="round"/>
<path d="M42.0531 149.131L63.0531 149.131" stroke="#040404" stroke-width="2" stroke-linecap="round"/>
<rect x="1" y="1" width="264.073" height="101.936" rx="7" stroke="black" stroke-width="2"/>
<path d="M32 140C33.8959 145.134 35.7647 147.206 41 149" stroke="#0C0C0C" stroke-width="2" stroke-linecap="round"/>
</svg>
